# xmcd CD database file
#
# Track frame offsets:
#	150
#	18540
#	39908
#	66371
#	85015
#	107198
#	128055
#	143728
#	163204
#	179775
#	209509
#	225753
#	242400
#	264053
#	287431
#	306000
#
# Disc length: 4390 seconds
#
# Revision: 2
# Processed by: cddbd v1.5.2PL0 Copyright (c) Steve Scherf et al.
# Submitted via: CDex 1.51
#
DISCID=d3112410
DTITLE=Various Artist - Jazz From Catalonia
DYEAR=2007
DGENRE=Jazz
TTITLE0=Andreu Martinez Project - Bright Size Life
TTITLE1=Among 3 - M1
TTITLE2=Manel Camp Quartet - Abril (Suite De La Primavera)
TTITLE3=Lluis Coloma - Goin' To Malaysia
TTITLE4=LLibert Fortuny - Les Tres Maries
TTITLE5=Horacio Fumero - Contrabajeando
TTITLE6=Sergi Sirvent and Xavi Maureta - Lines Over Rhythm
TTITLE7=Elisabet Raspall - Cercles
TTITLE8=Ramon Fosssati Sextet - Callin' The Spirits
TTITLE9=Afro Blue - Donde Dije Digo, Digo Dije
TTITLE10=Xavier Dotras Trio - Paris-99
TTITLE11=Antonio Serrano and Jose Reinoso - Como Te Llamabas?
TTITLE12=Max Sunyer - Rumb De Deriva
TTITLE13=Jordi Berni and Santi De La Rubia - Brandon Marlon
TTITLE14=Gorka Benitez - Because Of You
TTITLE15=Colina Miralta Sambeat - Encuentros
EXTD=YEAR: 2007
EXTT0=
EXTT1=
EXTT2=
EXTT3=
EXTT4=
EXTT5=
EXTT6=
EXTT7=
EXTT8=
EXTT9=
EXTT10=
EXTT11=
EXTT12=
EXTT13=
EXTT14=
EXTT15=
PLAYORDER=
